<?xml version="1.0" encoding="UTF-8"?>
<svg version="1.1" xmlns="http://www.w3.org/2000/svg" width="385" height="475">
<path d="M0 0 C0.9998432 -0.00382555 1.99968641 -0.00765109 3.02982789 -0.01159257 C6.35989024 -0.02186168 9.68977821 -0.01794207 13.01985168 -0.01396179 C15.41535602 -0.01831149 17.81085897 -0.0234955 20.20635986 -0.02944946 C26.02449733 -0.04143253 31.84258106 -0.04399484 37.66072937 -0.0416492 C42.38968288 -0.03986273 47.1186224 -0.04162271 51.84757423 -0.04587364 C52.52181063 -0.04646883 53.19604703 -0.04706402 53.89071483 -0.04767724 C55.26057464 -0.04888904 56.63043444 -0.05010317 58.00029425 -0.05131962 C70.82799212 -0.06218026 83.65566366 -0.06003901 96.48336301 -0.05393478 C108.21551606 -0.04876061 119.94758621 -0.06003684 131.67972287 -0.07903299 C143.73727694 -0.09840601 155.79479176 -0.10666874 167.8523615 -0.10290974 C174.61753624 -0.10099769 181.38264033 -0.10348612 188.14780235 -0.11762428 C194.50490551 -0.13017394 200.86184212 -0.12828558 207.21894264 -0.11521339 C209.55302613 -0.11284227 211.88712124 -0.11560138 214.22119141 -0.12383652 C217.40457295 -0.13425955 220.58739093 -0.12623885 223.77075195 -0.11352539 C224.69652721 -0.12089968 225.62230247 -0.12827396 226.57613152 -0.13587171 C231.87491119 -0.09127998 236.70041259 0.26620849 240.69490051 4.26069641 C241.00740051 7.13569641 241.00740051 7.13569641 240.69490051 10.26069641 C238.92506518 12.37965033 237.41830081 13.16363308 234.68336964 13.53059661 C232.02689827 13.64619679 229.38669643 13.65347619 226.72773743 13.63250732 C225.70373132 13.63633189 224.67972522 13.64015645 223.62468863 13.64409691 C220.18246046 13.65340599 216.74063198 13.64137488 213.29841614 13.6295929 C210.83456759 13.63206005 208.37072009 13.63589758 205.90687561 13.64100647 C200.59434097 13.64935655 195.28191781 13.64883072 189.96939087 13.64082146 C182.27530116 13.62958739 174.58133439 13.63863406 166.88725537 13.65338326 C154.38694129 13.67716509 141.88664237 13.69052159 129.38630676 13.6945343 C128.63808157 13.69477917 127.88985638 13.69502404 127.1189577 13.69527633 C118.78042076 13.69781957 110.441885 13.6983905 102.10334778 13.69734192 C99.08438619 13.69700892 96.06542461 13.69672351 93.04646301 13.69648743 C91.92913228 13.69639325 91.92913228 13.69639325 90.78922921 13.69629716 C78.34531509 13.69569124 65.90147081 13.71062105 53.45758581 13.73732048 C45.78912693 13.75308866 38.12089418 13.75542245 30.45243305 13.74018646 C24.56563021 13.72955976 18.67897362 13.73946286 12.79218292 13.75674438 C10.38483491 13.76046216 7.97746495 13.75738715 5.57013702 13.74687386 C-11.1544142 13.67872559 -24.56723755 13.83733252 -37.17228699 26.07319641 C-46.36654884 35.85936353 -48.81229058 45.80850645 -48.57853699 58.85444641 C-48.0621895 70.75600042 -42.5301098 79.50313271 -34.05509949 87.51069641 C-23.75609575 95.80070166 -12.60296996 96.42604684 0.05142212 96.36749268 C1.55942895 96.36665762 1.55942895 96.36665762 3.09790057 96.36580569 C6.44642109 96.36278414 9.79488086 96.3526104 13.14338684 96.34248352 C15.55198606 96.33892522 17.96058601 96.33583983 20.3691864 96.33319092 C25.54520356 96.3266526 30.72120329 96.31710167 35.89721107 96.30529594 C43.38507656 96.28827627 50.87293813 96.27875415 58.36081871 96.27141721 C70.51702451 96.25948984 82.67322408 96.24454605 94.829422 96.22627258 C95.91926479 96.2246374 95.91926479 96.2246374 97.03112461 96.22296918 C107.3560673 96.20733809 117.68100258 96.18873748 128.00593808 96.16897131 C128.73401589 96.16757799 129.46209371 96.16618468 130.2122345 96.16474915 C130.93942229 96.16335562 131.66661008 96.16196209 132.41583387 96.16052633 C144.53438654 96.13750396 156.65293439 96.1221817 168.77150553 96.11318976 C176.24296763 96.10733514 183.71436321 96.09495775 191.18579908 96.07421697 C196.90345459 96.05890824 202.62108238 96.05390849 208.33875656 96.05277443 C210.6865859 96.05062143 213.03441491 96.04501093 215.38222694 96.03574371 C218.57932139 96.02360916 221.77618675 96.02370098 224.97329712 96.0269165 C225.90878901 96.0204087 226.8442809 96.0139009 227.80812103 96.00719589 C228.66396685 96.01056129 229.51981267 96.01392669 230.40159321 96.01739407 C231.50837468 96.0154418 231.50837468 96.0154418 232.63751537 96.01345009 C235.05878075 96.30442573 236.63346006 96.96658002 238.69490051 98.26069641 C241.21552304 102.84364647 240.52159063 106.06677729 239.35652161 110.87788391 C238.49701027 115.27249242 238.05777668 119.67066089 237.61677551 124.12397766 C237.52702454 125.00396423 237.43727356 125.88395081 237.34480286 126.79060364 C237.1252841 128.94700953 236.9096959 131.10381492 236.69490051 133.26069641 C237.47227066 133.25181396 238.24964081 133.24293152 239.05056763 133.23377991 C246.41989437 133.15322943 253.78900403 133.09252848 261.15865803 133.05344772 C264.94640379 133.03267957 268.73378214 133.00456288 272.52131653 132.9589386 C276.18478125 132.91509109 279.84789528 132.89147858 283.5116024 132.88118744 C284.90090127 132.87386506 286.29018358 132.85956855 287.67933083 132.83777618 C297.66822389 132.6874791 305.93419077 133.75417744 314.56990051 139.01069641 C321.09769103 145.92247461 323.8506287 153.30049829 323.77278137 162.75654602 C323.64191522 166.96436455 323.24584884 171.13633131 322.81990051 175.32319641 C322.68128601 176.69846497 322.68128601 176.69846497 322.53987122 178.10151672 C322.35053808 179.95514143 322.15860637 181.80850275 321.96394348 183.66157532 C321.7251701 185.96827349 321.50633305 188.27580483 321.29255676 190.58491516 C319.16938376 210.90671391 312.46925221 228.90891385 298.69490051 244.26069641 C298.17798645 244.87042297 297.66107239 245.48014954 297.12849426 246.10835266 C283.914356 260.64721656 263.83323903 268.00539488 244.69490051 268.94819641 C237.36377679 269.25197415 230.03202808 269.39491216 222.69490051 269.26069641 C222.96753723 270.28936829 222.96753723 270.28936829 223.24568176 271.33882141 C223.77655549 274.7918088 223.40649391 277.55695864 222.88240051 281.01069641 C222.24682577 285.2383515 221.65381354 289.44515256 221.28865051 293.70600891 C220.19430213 306.10454048 217.53296859 313.25560929 208.07380676 321.63179016 C202.5903698 325.38645882 197.16811758 325.55362112 190.76454163 325.53485107 C189.87625632 325.54008775 188.98797101 325.54532443 188.07276797 325.5507198 C185.10203978 325.56569819 182.13148416 325.56642448 179.16072083 325.5670929 C177.0283021 325.57471585 174.89588613 325.58314358 172.76347351 325.59231567 C166.97408049 325.61425458 161.18474029 325.62305883 155.3953104 325.62814212 C151.77664884 325.63178651 148.15800109 325.63802703 144.53934479 325.64514351 C131.91020094 325.66963624 119.28109815 325.68268945 106.65193176 325.68623352 C94.8878409 325.68986826 83.12401101 325.71975989 71.3599999 325.7616381 C61.25364008 325.7963515 51.1473667 325.81178215 41.04094768 325.81247956 C35.00769616 325.81327203 28.9747105 325.82199737 22.94152069 325.85047722 C17.26477336 325.87667538 11.58851198 325.87885291 5.91173172 325.86282158 C3.83249221 325.86100849 1.75322464 325.86768507 -0.32595444 325.88364029 C-22.16121116 326.04093609 -22.16121116 326.04093609 -30.42013168 318.27085018 C-37.45132807 310.99780736 -38.86040759 303.29024566 -39.98869324 293.55757141 C-40.12915573 292.41783875 -40.26961823 291.27810608 -40.41433716 290.10383606 C-40.86722579 286.40727461 -41.30508704 282.70910634 -41.74259949 279.01069641 C-42.05052687 276.47381178 -42.35928662 273.93702805 -42.66886902 271.40034485 C-44.57817448 255.68256163 -46.43113774 239.95657228 -48.15055847 224.2167511 C-48.36240784 222.2971759 -48.36240784 222.2971759 -48.57853699 220.33882141 C-48.75521912 218.70541809 -48.75521912 218.70541809 -48.93547058 217.03901672 C-49.24668021 214.69980568 -49.71219761 212.53788109 -50.30509949 210.26069641 C-50.60506766 206.96104655 -50.81151551 203.66078977 -51.02384949 200.35444641 C-51.19824872 197.44686936 -51.19824872 197.44686936 -51.79899597 195.43721008 C-52.43032933 192.72214162 -52.54303794 190.12907341 -52.68400574 187.34272766 C-53.12978703 179.73577142 -53.87456698 172.1650602 -54.64494324 164.58491516 C-54.77244965 163.32841156 -54.89995605 162.07190796 -55.03132629 160.77732849 C-55.56623129 155.52885863 -56.10540529 150.28083322 -56.64567566 145.03291321 C-61.67777455 96.03680796 -61.67777455 96.03680796 -61.62077332 72.15962219 C-61.61754134 69.33487164 -61.64150585 66.51110571 -61.66642761 63.68647766 C-61.72996537 45.6807778 -58.7871166 30.06189347 -45.84806824 16.58100891 C-37.98038193 9.40219837 -29.59473914 4.89505283 -19.30509949 2.26069641 C-18.67564397 2.09391712 -18.04618845 1.92713784 -17.39765853 1.75530463 C-11.5322422 0.30990221 -6.02453657 -0.02477325 0 0 Z M-32.30509949 122.26069641 C-32.61783804 131.00000152 -32.06127854 139.61471205 -31.36759949 148.32319641 C-31.2807489 149.429776 -31.19389832 150.53635559 -31.10441589 151.6764679 C-30.75503473 156.98231667 -30.75503473 156.98231667 -29.79971313 162.19364929 C-28.98448605 165.60057671 -29.04885729 169.08882821 -28.93009949 172.57710266 C-28.29103522 188.07449842 -26.95762158 203.52746116 -25.72111511 218.98603821 C-25.37075017 223.3665263 -25.02575721 227.74741854 -24.68232727 232.12845516 C-24.41489379 235.53356344 -24.14491037 238.93846577 -23.87413025 242.3433094 C-23.74582539 243.95991308 -23.61824966 245.5765748 -23.49143982 247.19329643 C-23.31469683 249.44115473 -23.13456904 251.68871711 -22.95353699 253.93623352 C-22.80150818 255.84643532 -22.80150818 255.84643532 -22.64640808 257.79522705 C-22.33203594 260.9871977 -21.85966322 264.10310337 -21.30509949 267.26069641 C-21.19388453 268.65190016 -21.10936263 270.04565067 -21.05900574 271.44038391 C-21.02758484 272.1970636 -20.99616394 272.95374329 -20.96379089 273.73335266 C-20.93204773 274.5261261 -20.90030457 275.31889954 -20.86759949 276.13569641 C-20.56202143 282.53163214 -20.15104774 288.89712652 -19.43009949 295.26069641 C-19.28830261 296.53944641 -19.14650574 297.81819641 -19.00041199 299.13569641 C-18.29552275 302.30373793 -17.92596119 303.43748827 -15.30509949 305.26069641 C-11.55484104 306.51078256 -8.06385782 306.40542626 -4.15742493 306.40113831 C-3.3171777 306.40410943 -2.47693046 306.40708055 -1.61122119 306.41014171 C1.21462494 306.41883872 4.04042876 306.42033779 6.86628723 306.42182922 C8.88814891 306.42645664 10.91000972 306.4314812 12.93186951 306.43687439 C18.43185184 306.45000664 23.93182197 306.45644481 29.43181753 306.46088505 C32.86599105 306.46381408 36.30016121 306.46791853 39.73433304 306.47238922 C50.47338721 306.48606552 61.21243373 306.49573187 71.95149601 306.49959111 C84.35901518 306.50407415 96.76642431 306.52163294 109.17391002 306.55059171 C118.75783575 306.57218604 128.34173047 306.58229417 137.92568028 306.58363223 C143.65302515 306.58468175 149.38026659 306.59062097 155.10758591 306.60845184 C160.4936274 306.62489392 165.87948729 306.62710683 171.26554489 306.61831284 C173.24367254 306.61754042 175.2218098 306.62191196 177.19991302 306.63177109 C179.89791289 306.64443098 182.59526377 306.63864635 185.29325867 306.62818909 C186.07818345 306.63624549 186.86310823 306.6443019 187.67181861 306.65260243 C192.19245565 306.61155114 195.09144584 306.0448771 198.69490051 303.26069641 C201.08296525 299.94963732 201.08020407 296.50563708 201.31990051 292.51069641 C201.39466614 291.34022766 201.46943176 290.16975891 201.54646301 288.96382141 C201.61993958 287.62577454 201.61993958 287.62577454 201.69490051 286.26069641 C200.54610413 286.58503159 199.39730774 286.90936676 198.21369934 287.24353027 C191.02567569 288.82640361 183.71360437 288.54821051 176.39411926 288.53535461 C174.7522407 288.53970771 173.11036416 288.54489284 171.4684906 288.55084229 C167.03052117 288.56417729 162.59263719 288.56481725 158.15465164 288.56227899 C154.44196106 288.56120583 150.72928752 288.5661013 147.01660061 288.57088441 C138.2553828 288.58195994 129.49420787 288.5824276 120.73298645 288.57637024 C111.70964551 288.57032744 102.68646038 288.58265373 93.66314602 288.60394031 C85.89982074 288.62157768 78.13654498 288.62755441 70.37320042 288.62430257 C65.74352335 288.62249344 61.11395753 288.62508909 56.48429871 288.63901711 C52.13067436 288.65162614 47.7772925 288.64962237 43.42367172 288.63660622 C41.83101188 288.63424782 40.2383348 288.6369486 38.64569473 288.64522934 C29.25305873 288.69052431 21.16361937 288.54192772 12.88240051 283.57319641 C7.34373528 277.71803602 6.04133795 271.20239957 5.49177551 263.38569641 C5.40810226 262.39174362 5.32442902 261.39779083 5.23822021 260.37371826 C4.958302 257.0037817 4.70186866 253.6324548 4.44490051 250.26069641 C4.24835085 247.84267754 4.05013173 245.42479391 3.85041809 243.0070343 C3.45485343 238.1931684 3.06502724 233.37893172 2.68229008 228.56403065 C1.68972058 216.0836192 0.64424476 203.60773575 -0.40275574 191.13179016 C-0.77166054 186.73270914 -1.14044698 182.3336182 -1.50920105 177.93452454 C-1.60075659 176.84254446 -1.69231213 175.75056438 -1.78664207 174.625494 C-2.7745689 162.83646669 -3.75347372 151.04669366 -4.73088074 139.25679016 C-4.81168444 138.28223814 -4.89248814 137.30768612 -4.97574043 136.30360222 C-5.41909855 130.95598669 -5.86222032 125.60835163 -6.30509949 120.26069641 C-9.02261527 120.23357963 -11.73985696 120.21380111 -14.45744324 120.19819641 C-15.22165588 120.1898175 -15.98586853 120.1814386 -16.77323914 120.17280579 C-22.2371524 120.14929876 -27.03375305 120.72721381 -32.30509949 122.26069641 Z M234.69490051 163.26069641 C232.34498629 166.78556775 232.25080846 168.82577148 231.87849426 173.01850891 C231.8171077 173.6809964 231.75572113 174.34348389 231.69247437 175.02604675 C231.4977886 177.14529459 231.31479772 179.265359 231.13240051 181.38569641 C231.00624727 182.78941436 230.87930223 184.19306139 230.75154114 185.59663391 C230.56544304 187.64329024 230.37992259 189.68997793 230.19754028 191.73696899 C229.826392 195.89315111 229.41155889 200.04035012 228.93391418 204.1855011 C228.46830874 208.22804073 228.05048543 212.27551499 227.63240051 216.32319641 C227.54152161 217.16946594 227.4506427 218.01573547 227.35700989 218.88764954 C226.95586558 222.79956055 226.64807235 226.63506688 226.69880676 230.56929016 C226.69548925 233.70433897 226.36256284 236.22898106 225.69490051 239.26069641 C245.19067622 239.87555591 259.40743245 239.43112192 274.44490051 225.76069641 C275.18740051 224.93569641 275.92990051 224.11069641 276.69490051 223.26069641 C277.17443176 222.76182922 277.65396301 222.26296204 278.14802551 221.74897766 C290.22887618 208.66138944 292.48884037 188.66928561 292.06990051 171.44038391 C291.79214308 168.95333977 291.79214308 168.95333977 289.63240051 166.13569641 C283.65922998 162.32303437 276.12588324 163.08864975 269.23786926 163.05757141 C268.25369522 163.05187134 267.26952118 163.04617126 266.25552368 163.04029846 C264.18723106 163.03089513 262.11892378 163.02433316 260.0506134 163.02046204 C256.87514346 163.01067404 253.70029924 162.97957455 250.52497864 162.94819641 C248.51261268 162.94167351 246.50024211 162.93642025 244.48786926 162.93257141 C243.53583115 162.92022461 242.58379303 162.90787781 241.60290527 162.89515686 C240.28562187 162.89965851 240.28562187 162.89965851 238.94172668 162.9042511 C238.16786118 162.90060547 237.39399567 162.89695984 236.59667969 162.89320374 C235.96909256 163.01447632 235.34150543 163.1357489 234.69490051 163.26069641 Z " fill="#0368A0" transform="translate(61.30509948730469,138.7393035888672)"/>
<path d="M0 0 C0.9998432 -0.00382555 1.99968641 -0.00765109 3.02982789 -0.01159257 C6.35989024 -0.02186168 9.68977821 -0.01794207 13.01985168 -0.01396179 C15.41535602 -0.01831149 17.81085897 -0.0234955 20.20635986 -0.02944946 C26.02449733 -0.04143253 31.84258106 -0.04399484 37.66072937 -0.0416492 C42.38968288 -0.03986273 47.1186224 -0.04162271 51.84757423 -0.04587364 C52.52181063 -0.04646883 53.19604703 -0.04706402 53.89071483 -0.04767724 C55.26057464 -0.04888904 56.63043444 -0.05010317 58.00029425 -0.05131962 C70.82799212 -0.06218026 83.65566366 -0.06003901 96.48336301 -0.05393478 C108.21551606 -0.04876061 119.94758621 -0.06003684 131.67972287 -0.07903299 C143.73727694 -0.09840601 155.79479176 -0.10666874 167.8523615 -0.10290974 C174.61753624 -0.10099769 181.38264033 -0.10348612 188.14780235 -0.11762428 C194.50490551 -0.13017394 200.86184212 -0.12828558 207.21894264 -0.11521339 C209.55302613 -0.11284227 211.88712124 -0.11560138 214.22119141 -0.12383652 C217.40457295 -0.13425955 220.58739093 -0.12623885 223.77075195 -0.11352539 C224.69652721 -0.12089968 225.62230247 -0.12827396 226.57613152 -0.13587171 C231.87491119 -0.09127998 236.70041259 0.26620849 240.69490051 4.26069641 C241.00740051 7.13569641 241.00740051 7.13569641 240.69490051 10.26069641 C238.92506518 12.37965033 237.41830081 13.16363308 234.68336964 13.53059661 C232.02689827 13.64619679 229.38669643 13.65347619 226.72773743 13.63250732 C225.70373132 13.63633189 224.67972522 13.64015645 223.62468863 13.64409691 C220.18246046 13.65340599 216.74063198 13.64137488 213.29841614 13.6295929 C210.83456759 13.63206005 208.37072009 13.63589758 205.90687561 13.64100647 C200.59434097 13.64935655 195.28191781 13.64883072 189.96939087 13.64082146 C182.27530116 13.62958739 174.58133439 13.63863406 166.88725537 13.65338326 C154.38694129 13.67716509 141.88664237 13.69052159 129.38630676 13.6945343 C128.63808157 13.69477917 127.88985638 13.69502404 127.1189577 13.69527633 C118.78042076 13.69781957 110.441885 13.6983905 102.10334778 13.69734192 C99.08438619 13.69700892 96.06542461 13.69672351 93.04646301 13.69648743 C91.92913228 13.69639325 91.92913228 13.69639325 90.78922921 13.69629716 C78.34531509 13.69569124 65.90147081 13.71062105 53.45758581 13.73732048 C45.78912693 13.75308866 38.12089418 13.75542245 30.45243305 13.74018646 C24.56563021 13.72955976 18.67897362 13.73946286 12.79218292 13.75674438 C10.38483491 13.76046216 7.97746495 13.75738715 5.57013702 13.74687386 C-11.1544142 13.67872559 -24.56723755 13.83733252 -37.17228699 26.07319641 C-46.36654884 35.85936353 -48.81229058 45.80850645 -48.57853699 58.85444641 C-48.0621895 70.75600042 -42.5301098 79.50313271 -34.05509949 87.51069641 C-23.75609575 95.80070166 -12.60296996 96.42604684 0.05142212 96.36749268 C1.55942895 96.36665762 1.55942895 96.36665762 3.09790057 96.36580569 C6.44642109 96.36278414 9.79488086 96.3526104 13.14338684 96.34248352 C15.55198606 96.33892522 17.96058601 96.33583983 20.3691864 96.33319092 C25.54520356 96.3266526 30.72120329 96.31710167 35.89721107 96.30529594 C43.38507656 96.28827627 50.87293813 96.27875415 58.36081871 96.27141721 C70.51702451 96.25948984 82.67322408 96.24454605 94.829422 96.22627258 C95.91926479 96.2246374 95.91926479 96.2246374 97.03112461 96.22296918 C107.3560673 96.20733809 117.68100258 96.18873748 128.00593808 96.16897131 C128.73401589 96.16757799 129.46209371 96.16618468 130.2122345 96.16474915 C130.93942229 96.16335562 131.66661008 96.16196209 132.41583387 96.16052633 C144.53438654 96.13750396 156.65293439 96.1221817 168.77150553 96.11318976 C176.24296763 96.10733514 183.71436321 96.09495775 191.18579908 96.07421697 C196.90345459 96.05890824 202.62108238 96.05390849 208.33875656 96.05277443 C210.6865859 96.05062143 213.03441491 96.04501093 215.38222694 96.03574371 C218.57932139 96.02360916 221.77618675 96.02370098 224.97329712 96.0269165 C225.90878901 96.0204087 226.8442809 96.0139009 227.80812103 96.00719589 C228.66396685 96.01056129 229.51981267 96.01392669 230.40159321 96.01739407 C231.50837468 96.0154418 231.50837468 96.0154418 232.63751537 96.01345009 C235.05878075 96.30442573 236.63346006 96.96658002 238.69490051 98.26069641 C241.21552304 102.84364647 240.52159063 106.06677729 239.35652161 110.87788391 C238.49701027 115.27249242 238.05777668 119.67066089 237.61677551 124.12397766 C237.52702454 125.00396423 237.43727356 125.88395081 237.34480286 126.79060364 C237.1252841 128.94700953 236.9096959 131.10381492 236.69490051 133.26069641 C237.47227066 133.25181396 238.24964081 133.24293152 239.05056763 133.23377991 C246.41989437 133.15322943 253.78900403 133.09252848 261.15865803 133.05344772 C264.94640379 133.03267957 268.73378214 133.00456288 272.52131653 132.9589386 C276.18478125 132.91509109 279.84789528 132.89147858 283.5116024 132.88118744 C284.90090127 132.87386506 286.29018358 132.85956855 287.67933083 132.83777618 C297.66822389 132.6874791 305.93419077 133.75417744 314.56990051 139.01069641 C321.09769103 145.92247461 323.8506287 153.30049829 323.77278137 162.75654602 C323.64191522 166.96436455 323.24584884 171.13633131 322.81990051 175.32319641 C322.68128601 176.69846497 322.68128601 176.69846497 322.53987122 178.10151672 C322.35053808 179.95514143 322.15860637 181.80850275 321.96394348 183.66157532 C321.7251701 185.96827349 321.50633305 188.27580483 321.29255676 190.58491516 C319.16938376 210.90671391 312.46925221 228.90891385 298.69490051 244.26069641 C298.17798645 244.87042297 297.66107239 245.48014954 297.12849426 246.10835266 C283.914356 260.64721656 263.83323903 268.00539488 244.69490051 268.94819641 C237.36377679 269.25197415 230.03202808 269.39491216 222.69490051 269.26069641 C222.96753723 270.28936829 222.96753723 270.28936829 223.24568176 271.33882141 C223.77655549 274.7918088 223.40649391 277.55695864 222.88240051 281.01069641 C222.24682577 285.2383515 221.65381354 289.44515256 221.28865051 293.70600891 C220.19430213 306.10454048 217.53296859 313.25560929 208.07380676 321.63179016 C202.5903698 325.38645882 197.16811758 325.55362112 190.76454163 325.53485107 C189.87625632 325.54008775 188.98797101 325.54532443 188.07276797 325.5507198 C185.10203978 325.56569819 182.13148416 325.56642448 179.16072083 325.5670929 C177.0283021 325.57471585 174.89588613 325.58314358 172.76347351 325.59231567 C166.97408049 325.61425458 161.18474029 325.62305883 155.3953104 325.62814212 C151.77664884 325.63178651 148.15800109 325.63802703 144.53934479 325.64514351 C131.91020094 325.66963624 119.28109815 325.68268945 106.65193176 325.68623352 C94.8878409 325.68986826 83.12401101 325.71975989 71.3599999 325.7616381 C61.25364008 325.7963515 51.1473667 325.81178215 41.04094768 325.81247956 C35.00769616 325.81327203 28.9747105 325.82199737 22.94152069 325.85047722 C17.26477336 325.87667538 11.58851198 325.87885291 5.91173172 325.86282158 C3.83249221 325.86100849 1.75322464 325.86768507 -0.32595444 325.88364029 C-22.16121116 326.04093609 -22.16121116 326.04093609 -30.42013168 318.27085018 C-37.45132807 310.99780736 -38.86040759 303.29024566 -39.98869324 293.55757141 C-40.12915573 292.41783875 -40.26961823 291.27810608 -40.41433716 290.10383606 C-40.86722579 286.40727461 -41.30508704 282.70910634 -41.74259949 279.01069641 C-42.05052687 276.47381178 -42.35928662 273.93702805 -42.66886902 271.40034485 C-44.57817448 255.68256163 -46.43113774 239.95657228 -48.15055847 224.2167511 C-48.36240784 222.2971759 -48.36240784 222.2971759 -48.57853699 220.33882141 C-48.75521912 218.70541809 -48.75521912 218.70541809 -48.93547058 217.03901672 C-49.24668021 214.69980568 -49.71219761 212.53788109 -50.30509949 210.26069641 C-50.60506766 206.96104655 -50.81151551 203.66078977 -51.02384949 200.35444641 C-51.19824872 197.44686936 -51.19824872 197.44686936 -51.79899597 195.43721008 C-52.43032933 192.72214162 -52.54303794 190.12907341 -52.68400574 187.34272766 C-53.12978703 179.73577142 -53.87456698 172.1650602 -54.64494324 164.58491516 C-54.77244965 163.32841156 -54.89995605 162.07190796 -55.03132629 160.77732849 C-55.56623129 155.52885863 -56.10540529 150.28083322 -56.64567566 145.03291321 C-61.67777455 96.03680796 -61.67777455 96.03680796 -61.62077332 72.15962219 C-61.61754134 69.33487164 -61.64150585 66.51110571 -61.66642761 63.68647766 C-61.72996537 45.6807778 -58.7871166 30.06189347 -45.84806824 16.58100891 C-37.98038193 9.40219837 -29.59473914 4.89505283 -19.30509949 2.26069641 C-18.67564397 2.09391712 -18.04618845 1.92713784 -17.39765853 1.75530463 C-11.5322422 0.30990221 -6.02453657 -0.02477325 0 0 Z M-32.30509949 122.26069641 C-32.61783804 131.00000152 -32.06127854 139.61471205 -31.36759949 148.32319641 C-31.2807489 149.429776 -31.19389832 150.53635559 -31.10441589 151.6764679 C-30.75503473 156.98231667 -30.75503473 156.98231667 -29.79971313 162.19364929 C-28.98448605 165.60057671 -29.04885729 169.08882821 -28.93009949 172.57710266 C-28.29103522 188.07449842 -26.95762158 203.52746116 -25.72111511 218.98603821 C-25.37075017 223.3665263 -25.02575721 227.74741854 -24.68232727 232.12845516 C-24.41489379 235.53356344 -24.14491037 238.93846577 -23.87413025 242.3433094 C-23.74582539 243.95991308 -23.61824966 245.5765748 -23.49143982 247.19329643 C-23.31469683 249.44115473 -23.13456904 251.68871711 -22.95353699 253.93623352 C-22.80150818 255.84643532 -22.80150818 255.84643532 -22.64640808 257.79522705 C-22.33203594 260.9871977 -21.85966322 264.10310337 -21.30509949 267.26069641 C-21.19388453 268.65190016 -21.10936263 270.04565067 -21.05900574 271.44038391 C-21.02758484 272.1970636 -20.99616394 272.95374329 -20.96379089 273.73335266 C-20.93204773 274.5261261 -20.90030457 275.31889954 -20.86759949 276.13569641 C-20.56202143 282.53163214 -20.15104774 288.89712652 -19.43009949 295.26069641 C-19.28830261 296.53944641 -19.14650574 297.81819641 -19.00041199 299.13569641 C-18.29552275 302.30373793 -17.92596119 303.43748827 -15.30509949 305.26069641 C-11.55484104 306.51078256 -8.06385782 306.40542626 -4.15742493 306.40113831 C-3.3171777 306.40410943 -2.47693046 306.40708055 -1.61122119 306.41014171 C1.21462494 306.41883872 4.04042876 306.42033779 6.86628723 306.42182922 C8.88814891 306.42645664 10.91000972 306.4314812 12.93186951 306.43687439 C18.43185184 306.45000664 23.93182197 306.45644481 29.43181753 306.46088505 C32.86599105 306.46381408 36.30016121 306.46791853 39.73433304 306.47238922 C50.47338721 306.48606552 61.21243373 306.49573187 71.95149601 306.49959111 C84.35901518 306.50407415 96.76642431 306.52163294 109.17391002 306.55059171 C118.75783575 306.57218604 128.34173047 306.58229417 137.92568028 306.58363223 C143.65302515 306.58468175 149.38026659 306.59062097 155.10758591 306.60845184 C160.4936274 306.62489392 165.87948729 306.62710683 171.26554489 306.61831284 C173.24367254 306.61754042 175.2218098 306.62191196 177.19991302 306.63177109 C179.89791289 306.64443098 182.59526377 306.63864635 185.29325867 306.62818909 C186.07818345 306.63624549 186.86310823 306.6443019 187.67181861 306.65260243 C192.19013311 306.61157223 195.09851926 306.05359714 198.69490051 303.26069641 C200.58381896 300.44134445 201.053864 297.83060989 201.44099426 294.49116516 C201.61115051 293.05945984 201.61115051 293.05945984 201.78474426 291.59883118 C201.89947083 290.5591217 202.01419739 289.51941223 202.13240051 288.44819641 C202.25872864 287.34725647 202.38505676 286.24631653 202.51521301 285.11201477 C204.80370757 264.81153865 206.60704359 244.46186815 208.38240051 224.11143494 C209.27306194 213.90637427 210.2062861 203.70682978 211.19490051 193.51069641 C211.31720032 192.24314514 211.43950012 190.97559387 211.56550598 189.66963196 C212.18305669 183.32249289 212.82766016 176.97955515 213.51521301 170.63960266 C213.71727356 168.73549622 213.71727356 168.73549622 213.92341614 166.79292297 C214.17159703 164.4645461 214.42695269 162.13691023 214.69294739 159.8105011 C215.61082243 151.13125728 215.94448611 142.46801921 216.23542786 133.74775696 C216.2801976 132.44931602 216.32496735 131.15087509 216.37109375 129.81308746 C216.48064813 126.62900882 216.5885379 123.444883 216.69490051 120.26069641 C186.27352251 120.21504734 155.85214805 120.17966473 125.43074361 120.15856575 C121.83723661 120.15606441 118.24372968 120.15347576 114.65022278 120.15083313 C113.93483603 120.15030851 113.21944928 120.14978389 112.48238414 120.14924337 C100.90690477 120.14054653 89.33144532 120.12478052 77.75597776 120.10639082 C65.87385515 120.08767172 53.99174295 120.07657543 42.10960621 120.07251942 C35.43755152 120.07002415 28.76553305 120.06378557 22.09349251 120.0492363 C15.81205024 120.0356499 9.53067165 120.03147595 3.24921608 120.03448105 C0.94542342 120.03393136 -1.3583714 120.02996027 -3.66215134 120.02228546 C-6.8120056 120.01230779 -9.96162069 120.01473794 -13.11148071 120.02018738 C-14.01909273 120.0143617 -14.92670475 120.00853601 -15.86182016 120.00253379 C-21.62354782 120.02940209 -26.71804019 120.836099 -32.30509949 122.26069641 Z M234.69490051 163.26069641 C232.34498629 166.78556775 232.25080846 168.82577148 231.87849426 173.01850891 C231.8171077 173.6809964 231.75572113 174.34348389 231.69247437 175.02604675 C231.4977886 177.14529459 231.31479772 179.265359 231.13240051 181.38569641 C231.00624727 182.78941436 230.87930223 184.19306139 230.75154114 185.59663391 C230.56544304 187.64329024 230.37992259 189.68997793 230.19754028 191.73696899 C229.826392 195.89315111 229.41155889 200.04035012 228.93391418 204.1855011 C228.46830874 208.22804073 228.05048543 212.27551499 227.63240051 216.32319641 C227.54152161 217.16946594 227.4506427 218.01573547 227.35700989 218.88764954 C226.95586558 222.79956055 226.64807235 226.63506688 226.69880676 230.56929016 C226.69548925 233.70433897 226.36256284 236.22898106 225.69490051 239.26069641 C245.19067622 239.87555591 259.40743245 239.43112192 274.44490051 225.76069641 C275.18740051 224.93569641 275.92990051 224.11069641 276.69490051 223.26069641 C277.17443176 222.76182922 277.65396301 222.26296204 278.14802551 221.74897766 C290.22887618 208.66138944 292.48884037 188.66928561 292.06990051 171.44038391 C291.79214308 168.95333977 291.79214308 168.95333977 289.63240051 166.13569641 C283.65922998 162.32303437 276.12588324 163.08864975 269.23786926 163.05757141 C268.25369522 163.05187134 267.26952118 163.04617126 266.25552368 163.04029846 C264.18723106 163.03089513 262.11892378 163.02433316 260.0506134 163.02046204 C256.87514346 163.01067404 253.70029924 162.97957455 250.52497864 162.94819641 C248.51261268 162.94167351 246.50024211 162.93642025 244.48786926 162.93257141 C243.53583115 162.92022461 242.58379303 162.90787781 241.60290527 162.89515686 C240.28562187 162.89965851 240.28562187 162.89965851 238.94172668 162.9042511 C238.16786118 162.90060547 237.39399567 162.89695984 236.59667969 162.89320374 C235.96909256 163.01447632 235.34150543 163.1357489 234.69490051 163.26069641 Z " fill="#252122" transform="translate(61.30509948730469,138.7393035888672)"/>
<path d="M0 0 C1.42125983 -0.00874829 1.42125983 -0.00874829 2.87123197 -0.01767331 C3.91421196 -0.01389399 4.95719194 -0.01011467 6.03177738 -0.00622082 C7.69135293 -0.01195914 7.69135293 -0.01195914 9.38445526 -0.01781338 C13.11094281 -0.02817479 16.83727718 -0.02414525 20.56377506 -0.02018261 C23.22764953 -0.02452734 25.89151256 -0.0296448 28.55538273 -0.03567028 C35.05145515 -0.04843652 41.54748628 -0.05020858 48.04356914 -0.04787002 C53.32235872 -0.04608886 58.60113574 -0.04783215 63.87992382 -0.05209446 C64.63048536 -0.05268965 65.38104689 -0.05328484 66.15435271 -0.05389806 C67.67899219 -0.05510978 69.20363166 -0.05632392 70.72827113 -0.05754044 C85.03472623 -0.06842338 99.34115776 -0.06624991 113.64761419 -0.06015559 C126.74270023 -0.05498567 139.83771191 -0.0662425 152.93278324 -0.08525381 C166.37101205 -0.10461413 179.80920565 -0.1128914 193.2474485 -0.10913056 C200.79512482 -0.10721577 208.34273783 -0.10973298 215.89040279 -0.1238451 C222.31572545 -0.13573689 228.74094583 -0.13718865 235.16626983 -0.12505493 C238.44577006 -0.11915066 241.72504357 -0.11972528 245.00453854 -0.13005733 C248.55676274 -0.14044439 252.10847829 -0.13248865 255.66068363 -0.11974621 C256.7014329 -0.12712049 257.74218216 -0.13449478 258.81446928 -0.14209253 C260.23964073 -0.13128271 260.23964073 -0.13128271 261.69360352 -0.12025452 C262.51369209 -0.12030953 263.33378067 -0.12036455 264.17872041 -0.12042123 C266.92151055 0.34047632 268.33079055 1.45431659 270.40972233 3.25447559 C269.53472233 8.12947559 269.53472233 8.12947559 268.40972233 9.25447559 C266.94686705 9.35297017 265.47926842 9.38186703 264.01310158 9.38311005 C262.58028952 9.38794672 262.58028952 9.38794672 261.11853176 9.3928811 C260.05668901 9.39133249 258.99484626 9.38978389 257.90082645 9.38818836 C256.22332149 9.3915867 256.22332149 9.3915867 254.51192755 9.39505368 C250.7331386 9.4014262 246.95438522 9.40056225 243.17559147 9.39973927 C240.47921455 9.40272872 237.78284051 9.40610204 235.08646488 9.40991688 C228.50390251 9.41823988 221.92134909 9.42097246 215.3387819 9.42152926 C209.99080405 9.42200363 204.64282917 9.42405444 199.29485226 9.42722988 C184.14840745 9.43604092 169.00196973 9.44064855 153.85552234 9.43989941 C153.0381764 9.43985945 152.22083047 9.43981949 151.37871647 9.43977833 C150.56037814 9.43973745 149.74203982 9.43969657 148.89890336 9.43965445 C135.63099359 9.43924784 122.36311218 9.44881996 109.09521062 9.46291669 C95.48755795 9.47726088 81.87991913 9.48418796 68.2722587 9.48332292 C60.62626031 9.48299027 52.98029165 9.48576684 45.33430004 9.49650097 C38.82508318 9.50558027 32.31590952 9.5078025 25.80668909 9.50099155 C22.48293696 9.49771326 19.1592856 9.49879087 15.83553791 9.5063448 C12.23881695 9.51399274 8.64231759 9.50946801 5.04560184 9.50171375 C3.98598981 9.50685732 2.92637778 9.51200088 1.8346563 9.51730031 C0.87684051 9.51270151 -0.08097527 9.50810272 -1.06781578 9.50336456 C-1.89886123 9.50358193 -2.72990668 9.5037993 -3.58613533 9.50402325 C-5.59027767 9.25447559 -5.59027767 9.25447559 -7.59027767 7.25447559 C-7.90277767 4.75447559 -7.90277767 4.75447559 -7.59027767 2.25447559 C-4.40921948 0.13377013 -3.64080918 0.00384885 0 0 Z " fill="#231F20" transform="translate(54.590277671813965,188.7455244064331)"/>
<path d="M0 0 C1.00945002 -0.00521549 2.01890004 -0.01043099 3.05893946 -0.01580453 C4.17623359 -0.01134309 5.29352773 -0.00688164 6.44467926 -0.002285 C8.21534579 -0.00696498 8.21534579 -0.00696498 10.02178335 -0.01173949 C13.30853845 -0.01835886 16.59506651 -0.01594637 19.88180804 -0.00976706 C23.42241132 -0.00525793 26.96299417 -0.01221864 30.50359344 -0.0177269 C37.44364105 -0.02663908 44.3836455 -0.0246908 51.32369483 -0.01890162 C56.96198293 -0.01439229 62.60025889 -0.01376906 68.23854828 -0.01594925 C69.03977925 -0.01625572 69.84101022 -0.01656218 70.66652092 -0.01687793 C72.2939994 -0.01751736 73.92147787 -0.01816578 75.54895633 -0.01882312 C90.82439488 -0.02453176 106.09980946 -0.01796016 121.37524408 -0.00722238 C134.49381944 0.00171361 147.61235942 0.00016172 160.73093414 -0.00905991 C175.95019886 -0.01975313 191.16944255 -0.02398238 206.3887105 -0.01783538 C208.01033814 -0.01719825 209.63196579 -0.01656951 211.25359344 -0.01594925 C212.05154991 -0.0156407 212.84950638 -0.01533215 213.67164335 -0.01501425 C219.3058072 -0.01328446 224.93995777 -0.01620851 230.57411957 -0.02090836 C237.43648478 -0.02650668 244.29880422 -0.02502293 251.16116416 -0.01434687 C254.66516254 -0.00907595 258.16908448 -0.0070574 261.67308235 -0.01364517 C265.464586 -0.02066588 269.25596337 -0.01230615 273.04746246 -0.002285 C274.72340367 -0.00897717 274.72340367 -0.00897717 276.43320227 -0.01580453 C277.44265229 -0.01058903 278.45210231 -0.00537354 279.49214172 0 C280.36821154 0.0003247 281.24428136 0.00064941 282.14689875 0.00098395 C284.24607086 0.25168228 284.24607086 0.25168228 286.24607086 2.25168228 C285.69051531 6.80723784 285.69051531 6.80723784 284.24607086 8.25168228 C282.69882884 8.34950924 281.14711042 8.37723741 279.59677887 8.37752342 C278.5852198 8.38013117 277.57366074 8.38273892 276.53144836 8.38542569 C275.40666832 8.38319497 274.28188828 8.38096424 273.12302399 8.37866592 C271.34645542 8.38100591 271.34645542 8.38100591 269.53399658 8.38339317 C266.23171024 8.38670644 262.92948026 8.38549399 259.62719727 8.38240695 C256.07160492 8.38015471 252.51601768 8.38363158 248.96042633 8.38638687 C241.98917141 8.39084546 235.01792722 8.38986771 228.04667187 8.38697423 C222.38356373 8.38472054 216.72045861 8.38440752 211.05735016 8.38549805 C210.25291961 8.38565128 209.44848907 8.38580451 208.61968184 8.38596239 C206.9857591 8.3862821 205.35183636 8.38660631 203.71791363 8.38693498 C188.37813623 8.38979003 173.03836479 8.38650236 157.69858837 8.38113461 C144.52170455 8.37666655 131.34482953 8.37744248 118.16794586 8.38205338 C102.88497777 8.3873987 87.60201492 8.38951534 72.31904602 8.38644111 C70.6909612 8.38612255 69.06287638 8.38580817 67.43479156 8.38549805 C66.63363529 8.38534377 65.83247901 8.3851895 65.00704527 8.38503055 C59.34738 8.38416526 53.68771804 8.38562851 48.02805328 8.3879776 C41.13563782 8.39077533 34.24323374 8.39003791 27.35081959 8.38469686 C23.83076919 8.38205947 20.31073784 8.38105539 16.79068756 8.38434601 C12.98348673 8.38785137 9.17631743 8.38368053 5.36911774 8.37866592 C3.68194767 8.38201201 3.68194767 8.38201201 1.96069336 8.38542569 C0.44335476 8.38151407 0.44335476 8.38151407 -1.10463715 8.37752342 C-1.98466652 8.37736107 -2.86469589 8.37719872 -3.77139282 8.37703145 C-5.75392914 8.25168228 -5.75392914 8.25168228 -6.75392914 7.25168228 C-6.94142914 4.81418228 -6.94142914 4.81418228 -6.75392914 2.25168228 C-4.24622063 -0.25602623 -3.46486098 0.00128421 0 0 Z " fill="#231F20" transform="translate(53.753929138183594,215.74831771850586)"/>
<path d="M0 0 C0.89238892 -0.00583219 1.78477784 -0.01166439 2.70420885 -0.01767331 C4.17631925 -0.01200433 4.17631925 -0.01200433 5.67816925 -0.00622082 C6.71992168 -0.01004636 7.76167411 -0.01387191 8.83499479 -0.01781338 C12.34270675 -0.02817228 15.8502559 -0.02414575 19.35797882 -0.02018261 C21.86583865 -0.02452745 24.37369714 -0.02970983 26.88155365 -0.03567028 C32.9962923 -0.04769948 39.11097043 -0.05020885 45.22571862 -0.04787002 C50.19416234 -0.04608881 55.16259272 -0.04783224 60.13103485 -0.05209446 C60.83747933 -0.05268965 61.54392381 -0.05328484 62.27177569 -0.05389806 C63.7067889 -0.05510978 65.1418021 -0.05632391 66.57681531 -0.05754044 C80.04104752 -0.06842249 93.5052547 -0.06625021 106.96948832 -0.06015559 C119.29573513 -0.05498459 131.62190295 -0.06624551 143.94813412 -0.08525381 C156.59647988 -0.10460977 169.24478823 -0.11289224 181.8931489 -0.10913056 C188.99757645 -0.10721526 196.10193674 -0.10973806 203.20635223 -0.1238451 C209.88429216 -0.13697083 216.56204784 -0.13452951 223.23999596 -0.12143421 C225.69627624 -0.11905745 228.15256752 -0.12184211 230.60883522 -0.13005733 C233.95122567 -0.14043355 237.29307438 -0.13249774 240.63544464 -0.11974621 C241.61685157 -0.12712049 242.5982585 -0.13449478 243.60940504 -0.14209253 C244.94798842 -0.13128271 244.94798842 -0.13128271 246.31361389 -0.12025452 C247.47141003 -0.12033704 247.47141003 -0.12033704 248.652596 -0.12042123 C251.20604819 0.35721368 252.12581472 1.18360638 253.65680695 3.25447559 C253.23575431 7.67552823 253.23575431 7.67552823 251.65680695 9.25447559 C250.28260366 9.35270002 248.90339015 9.38186461 247.5256815 9.38311005 C246.62969118 9.38633449 245.73370087 9.38955894 244.81055933 9.3928811 C243.8148627 9.39133249 242.81916607 9.38978389 241.79329681 9.38818836 C240.74438056 9.39045392 239.69546431 9.39271948 238.61476272 9.39505368 C235.0709052 9.40142567 231.52708561 9.40056228 227.98322296 9.39973927 C225.45433248 9.40272876 222.92544245 9.40613079 220.39655304 9.40991688 C214.22306785 9.41785989 208.04959675 9.42097245 201.87610693 9.42152926 C196.86041356 9.42200365 191.84472336 9.42405454 186.82903099 9.42722988 C172.62332406 9.43604085 158.4176247 9.44064856 144.21191502 9.43989941 C143.0620645 9.43983947 143.0620645 9.43983947 141.88898468 9.43977833 C140.73773787 9.43971701 140.73773787 9.43971701 139.56323355 9.43965445 C127.11980509 9.43924784 114.67640688 9.44881984 102.23298717 9.46291669 C89.47058364 9.47726138 76.70819488 9.48418793 63.94578308 9.48332292 C56.7748604 9.48299029 49.60396941 9.48576613 42.43305397 9.49650097 C35.69197888 9.50652728 28.95098206 9.5062902 22.2098999 9.49898434 C19.72901245 9.49793325 17.24812091 9.50033211 14.76724052 9.5063448 C11.39384667 9.51399405 8.02068902 9.50946715 4.64730072 9.50171375 C3.15710186 9.5094291 3.15710186 9.5094291 1.63679796 9.51730031 C0.28890087 9.51040211 0.28890087 9.51040211 -1.08622646 9.50336456 C-1.86562995 9.50358193 -2.64503343 9.5037993 -3.44805521 9.50402325 C-5.34319305 9.25447559 -5.34319305 9.25447559 -7.34319305 7.25447559 C-7.65569305 4.75447559 -7.65569305 4.75447559 -7.34319305 2.25447559 C-4.2214791 0.17333296 -3.54295792 0.00397862 0 0 Z " fill="#242021" transform="translate(54.34319305419922,162.7455244064331)"/>
<path d="M0 0 C3.38570397 4.04516166 3.4290635 8.05671944 3.38818359 13.10742188 C3.39344055 13.9096669 3.39869751 14.71191193 3.40411377 15.53846741 C3.41728398 18.18209481 3.40858639 20.8251168 3.3984375 23.46875 C3.40045909 25.31050736 3.40337125 27.15226393 3.40713501 28.99401855 C3.41155432 32.85074498 3.40513995 36.70726271 3.39111328 40.56396484 C3.37402163 45.50375734 3.38386492 50.44306082 3.40183067 55.38283539 C3.41267911 59.18499425 3.4092173 62.98703746 3.4014473 66.78919983 C3.39944822 68.61043862 3.40189428 70.43168796 3.40888596 72.25291443 C3.4165179 74.7997513 3.40487214 77.34579985 3.38818359 79.89257812 C3.39729263 81.01799767 3.39729263 81.01799767 3.40658569 82.16615295 C3.35279826 86.60435266 2.77042351 89.48669842 0 93 C-2.375 94.0625 -2.375 94.0625 -5 94 C-7.62561035 92.52064514 -7.62561035 92.52064514 -10 90 C-10.49340662 87.0118298 -10.66509286 84.5935194 -10.61523438 81.60717773 C-10.62078339 80.76285187 -10.6263324 79.918526 -10.63204956 79.0486145 C-10.64385394 76.2596957 -10.61956543 73.47239871 -10.59375 70.68359375 C-10.5920392 68.74593683 -10.59210427 66.8082776 -10.59387207 64.87062073 C-10.59221844 60.81106404 -10.57351086 56.75205933 -10.54199219 52.69262695 C-10.50228799 47.484658 -10.49794968 42.27741132 -10.50545502 37.06931973 C-10.50852169 33.06904971 -10.49641543 29.06894262 -10.47932434 25.06871223 C-10.4722852 23.14814335 -10.46917091 21.22755601 -10.47001648 19.30697441 C-10.46822237 16.62545134 -10.44687501 13.94480036 -10.41992188 11.26342773 C-10.42285248 10.46698349 -10.42578308 9.67053925 -10.42880249 8.84996033 C-10.34606107 3.52543628 -10.34606107 3.52543628 -8.69250488 1.01478577 C-5.72304809 -0.76563007 -3.34254974 -0.47750711 0 0 Z " fill="#252021" transform="translate(202,31)"/>
<path d="M0 0 C5.875 2.75 5.875 2.75 7 5 C7.10882697 7.7300742 7.15732475 10.43502876 7.16113281 13.16577148 C7.16609772 14.0098053 7.17106262 14.85383911 7.17617798 15.72344971 C7.1908139 18.5226726 7.19760343 21.32183885 7.203125 24.12109375 C7.20887459 26.06160993 7.21463235 28.00212608 7.22039795 29.94264221 C7.23091154 34.01392889 7.23675209 38.08519579 7.24023438 42.15649414 C7.24572459 47.3801286 7.26976236 52.60350311 7.29820633 57.82705593 C7.31680342 61.8358487 7.32203671 65.84457845 7.32357025 69.85341072 C7.32660316 71.77958665 7.33465306 73.70576131 7.34775543 75.63189507 C7.36475739 78.32307777 7.36295032 81.01361978 7.35644531 83.70483398 C7.3656601 84.50442032 7.37487488 85.30400665 7.3843689 86.12782288 C7.34367095 91.48633615 7.34367095 91.48633615 5.66522217 93.99501038 C3.03297949 95.58361316 0.99503292 95.37437911 -2 95 C-3.66125488 93.99876404 -3.66125488 93.99876404 -5 92 C-5.30658778 89.14355505 -5.43031821 86.50333774 -5.41992188 83.64477539 C-5.43262619 82.36628471 -5.43262619 82.36628471 -5.44558716 81.06196594 C-5.46901427 78.2403782 -5.46997797 75.41933395 -5.46875 72.59765625 C-5.47584816 70.63854248 -5.48354664 68.67943081 -5.49182129 66.72032166 C-5.50527925 62.61207299 -5.50682897 58.50401652 -5.50097656 54.39575195 C-5.49507941 49.128273 -5.5256666 43.8617154 -5.56609344 38.59441471 C-5.5919297 34.54779584 -5.59485156 30.50139999 -5.59120178 26.45471001 C-5.59289687 24.512605 -5.60257665 22.57049011 -5.62034607 20.62846565 C-5.64245555 17.91322109 -5.63287545 15.19985667 -5.61523438 12.48461914 C-5.62849762 11.68084839 -5.64176086 10.87707764 -5.65542603 10.0489502 C-5.59429137 6.00409368 -5.38258774 4.38135737 -2.46154785 1.4697113 C-1.64923706 0.98470657 -0.83692627 0.49970184 0 0 Z " fill="#231F20" transform="translate(165,7)"/>
<path d="M0 0 C1.66125488 1.13319397 1.66125488 1.13319397 3 3 C3.39440918 5.80149841 3.39440918 5.80149841 3.41992188 9.24389648 C3.43583374 10.532108 3.45174561 11.82031952 3.46813965 13.14756775 C3.46940687 14.55540919 3.46958379 15.96325198 3.46875 17.37109375 C3.47585059 18.81454261 3.48354943 20.25798865 3.49182129 21.70143127 C3.50527066 24.72689662 3.50683302 27.75210101 3.50097656 30.77758789 C3.49508052 34.65291306 3.52566346 38.52698534 3.56609344 42.40206814 C3.59195668 45.38327264 3.5948492 48.36417493 3.59120178 51.34547615 C3.59289444 52.77402965 3.60255125 54.2025969 3.62034607 55.63104057 C3.64250125 57.62947463 3.62963537 59.62820401 3.61523438 61.62670898 C3.61728882 62.76349594 3.61934326 63.9002829 3.62145996 65.07151794 C3 68 3 68 0.66467285 70.44129944 C-2 72 -2 72 -5.25 71.3125 C-8 70 -8 70 -9 69 C-9.10991217 66.96074955 -9.14912471 64.91766332 -9.16113281 62.87548828 C-9.17074036 61.56387726 -9.1803479 60.25226624 -9.19024658 58.90090942 C-9.19509414 57.45737887 -9.19937308 56.01384632 -9.203125 54.5703125 C-9.20887411 53.09919227 -9.21463187 51.62807207 -9.22039795 50.1569519 C-9.23091751 47.06833546 -9.23675379 43.97974513 -9.24023438 40.89111328 C-9.24571875 36.93078368 -9.26974116 32.97079798 -9.29820633 29.01057625 C-9.31681912 25.97027577 -9.32203759 22.9300583 -9.32357025 19.88970566 C-9.32660081 18.4296366 -9.33464295 16.96956914 -9.34775543 15.50955582 C-9.36478438 13.46753975 -9.36109545 11.42538255 -9.35644531 9.38330078 C-9.36009094 8.22049591 -9.36373657 7.05769104 -9.36749268 5.85964966 C-9 3 -9 3 -7.66522217 1.1244812 C-5.06123806 -0.63392151 -3.05099107 -0.38137388 0 0 Z " fill="#231F20" transform="translate(136,53)"/>
<path d="M0 0 C4.875 2.75 4.875 2.75 6 5 C6.51171676 9.34539808 6.76364606 12.84038932 4.3125 16.5625 C1.54815528 18.28087645 0.19625513 18.57368682 -3 18 C-5.34108373 16.28094335 -5.93666492 15.32158511 -6.50390625 12.44140625 C-6.65967863 4.78779013 -6.65967863 4.78779013 -4.65234375 2.390625 C-3 1.3125 -3 1.3125 0 0 Z " fill="#252121" transform="translate(133,23)"/>
<path d="" fill="#EAC8AC" transform="translate(0,0)"/>
</svg>
